<mxfile host="65bd71144e">
    <diagram id="QbHpFydEDHgJRGH1F0Vl" name="第 1 页">
        <mxGraphModel dx="1888" dy="1204" grid="1" gridSize="10" guides="1" tooltips="1" connect="1" arrows="1" fold="1" page="1" pageScale="1" pageWidth="827" pageHeight="1169" math="1" shadow="0">
            <root>
                <mxCell id="0"/>
                <mxCell id="1" parent="0"/>
                <mxCell id="27" style="edgeStyle=none;html=1;fontSize=16;endArrow=none;endFill=0;" edge="1" parent="1" source="2" target="14">
                    <mxGeometry relative="1" as="geometry"/>
                </mxCell>
                <mxCell id="28" style="edgeStyle=none;html=1;fontSize=16;endArrow=none;endFill=0;" edge="1" parent="1" source="2" target="17">
                    <mxGeometry relative="1" as="geometry"/>
                </mxCell>
                <mxCell id="30" style="edgeStyle=none;html=1;fontSize=16;endArrow=none;endFill=0;" edge="1" parent="1" source="2" target="13">
                    <mxGeometry relative="1" as="geometry"/>
                </mxCell>
                <mxCell id="31" style="edgeStyle=none;html=1;fontSize=16;endArrow=none;endFill=0;" edge="1" parent="1" source="2" target="12">
                    <mxGeometry relative="1" as="geometry"/>
                </mxCell>
                <mxCell id="32" style="edgeStyle=none;html=1;fontSize=16;endArrow=none;endFill=0;" edge="1" parent="1" source="2" target="15">
                    <mxGeometry relative="1" as="geometry"/>
                </mxCell>
                <mxCell id="33" style="edgeStyle=none;html=1;fontSize=16;endArrow=none;endFill=0;" edge="1" parent="1" source="2" target="3">
                    <mxGeometry relative="1" as="geometry"/>
                </mxCell>
                <mxCell id="34" style="edgeStyle=none;html=1;fontSize=16;endArrow=none;endFill=0;" edge="1" parent="1" source="2" target="11">
                    <mxGeometry relative="1" as="geometry"/>
                </mxCell>
                <mxCell id="68" style="edgeStyle=none;html=1;fontSize=16;endArrow=none;endFill=0;" edge="1" parent="1" source="2" target="67">
                    <mxGeometry relative="1" as="geometry"/>
                </mxCell>
                <mxCell id="78" style="edgeStyle=none;html=1;fontSize=16;endArrow=none;endFill=0;" edge="1" parent="1" source="2" target="77">
                    <mxGeometry relative="1" as="geometry"/>
                </mxCell>
                <mxCell id="2" value="学生" style="whiteSpace=wrap;html=1;align=center;rounded=0;fontSize=16;" vertex="1" parent="1">
                    <mxGeometry x="-110" y="560" width="100" height="40" as="geometry"/>
                </mxCell>
                <mxCell id="3" value="学生姓名" style="ellipse;whiteSpace=wrap;html=1;align=center;rounded=0;fontSize=16;" vertex="1" parent="1">
                    <mxGeometry x="-50" y="460" width="100" height="40" as="geometry"/>
                </mxCell>
                <mxCell id="11" value="&lt;u style=&quot;font-size: 16px;&quot;&gt;学号&lt;/u&gt;" style="ellipse;whiteSpace=wrap;html=1;align=center;rounded=0;fontSize=16;" vertex="1" parent="1">
                    <mxGeometry x="-170" y="460" width="100" height="40" as="geometry"/>
                </mxCell>
                <mxCell id="12" value="性别" style="ellipse;whiteSpace=wrap;html=1;align=center;rounded=0;fontSize=16;" vertex="1" parent="1">
                    <mxGeometry x="60" y="520" width="100" height="40" as="geometry"/>
                </mxCell>
                <mxCell id="13" value="出生日期" style="ellipse;whiteSpace=wrap;html=1;align=center;rounded=0;fontSize=16;" vertex="1" parent="1">
                    <mxGeometry x="-50" y="660" width="100" height="40" as="geometry"/>
                </mxCell>
                <mxCell id="14" value="民族" style="ellipse;whiteSpace=wrap;html=1;align=center;rounded=0;fontSize=16;" vertex="1" parent="1">
                    <mxGeometry x="-280" y="585" width="100" height="40" as="geometry"/>
                </mxCell>
                <mxCell id="15" value="入学年" style="ellipse;whiteSpace=wrap;html=1;align=center;rounded=0;fontSize=16;" vertex="1" parent="1">
                    <mxGeometry x="60" y="585" width="100" height="40" as="geometry"/>
                </mxCell>
                <mxCell id="44" style="edgeStyle=none;html=1;fontSize=16;endArrow=none;endFill=0;" edge="1" parent="1" source="16" target="43">
                    <mxGeometry relative="1" as="geometry"/>
                </mxCell>
                <mxCell id="45" style="edgeStyle=none;html=1;fontSize=16;endArrow=none;endFill=0;" edge="1" parent="1" source="16" target="42">
                    <mxGeometry relative="1" as="geometry"/>
                </mxCell>
                <mxCell id="46" style="edgeStyle=none;html=1;fontSize=16;endArrow=none;endFill=0;" edge="1" parent="1" source="16" target="39">
                    <mxGeometry relative="1" as="geometry"/>
                </mxCell>
                <mxCell id="16" value="课程" style="whiteSpace=wrap;html=1;align=center;rounded=0;fontSize=16;" vertex="1" parent="1">
                    <mxGeometry x="-500" y="300" width="100" height="40" as="geometry"/>
                </mxCell>
                <mxCell id="17" value="家庭住址" style="ellipse;whiteSpace=wrap;html=1;align=center;rounded=0;fontSize=16;" vertex="1" parent="1">
                    <mxGeometry x="-280" y="515" width="100" height="40" as="geometry"/>
                </mxCell>
                <mxCell id="25" value="" style="edgeStyle=none;html=1;fontSize=16;endArrow=none;endFill=0;" edge="1" parent="1" source="18" target="21">
                    <mxGeometry relative="1" as="geometry"/>
                </mxCell>
                <mxCell id="26" style="edgeStyle=none;html=1;fontSize=16;endArrow=none;endFill=0;" edge="1" parent="1" source="18" target="16">
                    <mxGeometry relative="1" as="geometry"/>
                </mxCell>
                <mxCell id="61" style="edgeStyle=none;html=1;fontSize=16;endArrow=none;endFill=0;" edge="1" parent="1" source="18" target="2">
                    <mxGeometry relative="1" as="geometry"/>
                </mxCell>
                <mxCell id="18" value="选课" style="shape=rhombus;perimeter=rhombusPerimeter;whiteSpace=wrap;html=1;align=center;fontSize=16;" vertex="1" parent="1">
                    <mxGeometry x="-340" y="400" width="120" height="60" as="geometry"/>
                </mxCell>
                <mxCell id="21" value="成绩" style="ellipse;whiteSpace=wrap;html=1;align=center;rounded=0;fontSize=16;" vertex="1" parent="1">
                    <mxGeometry x="-330" y="330" width="100" height="40" as="geometry"/>
                </mxCell>
                <mxCell id="37" value="&lt;u&gt;班级号&lt;/u&gt;" style="ellipse;whiteSpace=wrap;html=1;align=center;rounded=0;fontSize=16;" vertex="1" parent="1">
                    <mxGeometry x="-600" y="791" width="100" height="40" as="geometry"/>
                </mxCell>
                <mxCell id="38" value="班级名" style="ellipse;whiteSpace=wrap;html=1;align=center;rounded=0;fontSize=16;" vertex="1" parent="1">
                    <mxGeometry x="-660" y="840" width="100" height="40" as="geometry"/>
                </mxCell>
                <mxCell id="39" value="学分" style="ellipse;whiteSpace=wrap;html=1;align=center;rounded=0;fontSize=16;" vertex="1" parent="1">
                    <mxGeometry x="-670" y="300" width="100" height="40" as="geometry"/>
                </mxCell>
                <mxCell id="42" value="课程名" style="ellipse;whiteSpace=wrap;html=1;align=center;rounded=0;fontSize=16;" vertex="1" parent="1">
                    <mxGeometry x="-610" y="240" width="100" height="40" as="geometry"/>
                </mxCell>
                <mxCell id="43" value="&lt;u&gt;课程号&lt;/u&gt;" style="ellipse;whiteSpace=wrap;html=1;align=center;rounded=0;fontSize=16;" vertex="1" parent="1">
                    <mxGeometry x="-500" y="220" width="100" height="40" as="geometry"/>
                </mxCell>
                <mxCell id="49" style="edgeStyle=none;html=1;fontSize=16;endArrow=none;endFill=0;" edge="1" parent="1" source="48" target="38">
                    <mxGeometry relative="1" as="geometry"/>
                </mxCell>
                <mxCell id="50" style="edgeStyle=none;html=1;fontSize=16;endArrow=none;endFill=0;" edge="1" parent="1" source="48" target="37">
                    <mxGeometry relative="1" as="geometry"/>
                </mxCell>
                <mxCell id="63" style="edgeStyle=none;html=1;entryX=0;entryY=0.5;entryDx=0;entryDy=0;fontSize=16;endArrow=none;endFill=0;" edge="1" parent="1" source="48" target="62">
                    <mxGeometry relative="1" as="geometry"/>
                </mxCell>
                <mxCell id="48" value="班级" style="whiteSpace=wrap;html=1;align=center;rounded=0;fontSize=16;" vertex="1" parent="1">
                    <mxGeometry x="-500" y="841" width="100" height="40" as="geometry"/>
                </mxCell>
                <mxCell id="74" value="" style="edgeStyle=none;html=1;fontSize=16;endArrow=none;endFill=0;" edge="1" parent="1" source="60" target="73">
                    <mxGeometry relative="1" as="geometry"/>
                </mxCell>
                <mxCell id="76" style="edgeStyle=none;html=1;fontSize=16;endArrow=none;endFill=0;" edge="1" parent="1" source="60" target="75">
                    <mxGeometry relative="1" as="geometry"/>
                </mxCell>
                <mxCell id="60" value="专业" style="whiteSpace=wrap;html=1;align=center;rounded=0;fontSize=16;" vertex="1" parent="1">
                    <mxGeometry x="229.5" y="840" width="100" height="40" as="geometry"/>
                </mxCell>
                <mxCell id="64" style="edgeStyle=none;html=1;fontSize=16;endArrow=none;endFill=0;" edge="1" parent="1" source="62" target="60">
                    <mxGeometry relative="1" as="geometry"/>
                </mxCell>
                <mxCell id="62" value="拥有" style="shape=rhombus;perimeter=rhombusPerimeter;whiteSpace=wrap;html=1;align=center;fontSize=16;" vertex="1" parent="1">
                    <mxGeometry x="-110" y="831" width="120" height="60" as="geometry"/>
                </mxCell>
                <mxCell id="69" style="edgeStyle=none;html=1;fontSize=16;endArrow=none;endFill=0;" edge="1" parent="1" source="67" target="48">
                    <mxGeometry relative="1" as="geometry"/>
                </mxCell>
                <mxCell id="67" value="属于" style="shape=rhombus;perimeter=rhombusPerimeter;whiteSpace=wrap;html=1;align=center;fontSize=16;" vertex="1" parent="1">
                    <mxGeometry x="-340" y="700" width="120" height="60" as="geometry"/>
                </mxCell>
                <mxCell id="73" value="&lt;u&gt;专业号&lt;/u&gt;" style="ellipse;whiteSpace=wrap;html=1;align=center;rounded=0;fontSize=16;" vertex="1" parent="1">
                    <mxGeometry x="316" y="780" width="100" height="40" as="geometry"/>
                </mxCell>
                <mxCell id="75" value="专业名" style="ellipse;whiteSpace=wrap;html=1;align=center;rounded=0;fontSize=16;" vertex="1" parent="1">
                    <mxGeometry x="374" y="840" width="100" height="40" as="geometry"/>
                </mxCell>
                <mxCell id="77" value="年龄" style="ellipse;whiteSpace=wrap;html=1;align=center;dashed=1;fontSize=16;" vertex="1" parent="1">
                    <mxGeometry x="-170" y="660" width="100" height="40" as="geometry"/>
                </mxCell>
                <mxCell id="82" style="edgeStyle=none;html=1;fontSize=16;endArrow=none;endFill=0;" edge="1" parent="1" source="79" target="81">
                    <mxGeometry relative="1" as="geometry"/>
                </mxCell>
                <mxCell id="79" value="院系" style="whiteSpace=wrap;html=1;align=center;rounded=0;fontSize=16;" vertex="1" parent="1">
                    <mxGeometry x="229.5" y="300" width="100" height="40" as="geometry"/>
                </mxCell>
                <mxCell id="83" style="edgeStyle=none;html=1;fontSize=16;endArrow=none;endFill=0;" edge="1" parent="1" source="81" target="60">
                    <mxGeometry relative="1" as="geometry"/>
                </mxCell>
                <mxCell id="81" value="拥有" style="shape=rhombus;perimeter=rhombusPerimeter;whiteSpace=wrap;html=1;align=center;fontSize=16;" vertex="1" parent="1">
                    <mxGeometry x="220" y="553" width="120" height="60" as="geometry"/>
                </mxCell>
                <mxCell id="102" value="n" style="text;html=1;align=center;verticalAlign=middle;resizable=0;points=[];autosize=1;strokeColor=none;fillColor=none;fontSize=16;" vertex="1" parent="1">
                    <mxGeometry x="-270" y="680" width="30" height="30" as="geometry"/>
                </mxCell>
                <mxCell id="103" value="n" style="text;html=1;align=center;verticalAlign=middle;resizable=0;points=[];autosize=1;strokeColor=none;fillColor=none;fontSize=16;" vertex="1" parent="1">
                    <mxGeometry x="-130" y="831" width="30" height="30" as="geometry"/>
                </mxCell>
                <mxCell id="104" value="n" style="text;html=1;align=center;verticalAlign=middle;resizable=0;points=[];autosize=1;strokeColor=none;fillColor=none;fontSize=16;" vertex="1" parent="1">
                    <mxGeometry x="250" y="613" width="30" height="30" as="geometry"/>
                </mxCell>
                <mxCell id="107" value="1" style="text;html=1;align=center;verticalAlign=middle;resizable=0;points=[];autosize=1;strokeColor=none;fillColor=none;fontSize=16;" vertex="1" parent="1">
                    <mxGeometry x="250" y="525" width="30" height="30" as="geometry"/>
                </mxCell>
                <mxCell id="108" value="1" style="text;html=1;align=center;verticalAlign=middle;resizable=0;points=[];autosize=1;strokeColor=none;fillColor=none;fontSize=16;" vertex="1" parent="1">
                    <mxGeometry y="831" width="30" height="30" as="geometry"/>
                </mxCell>
                <mxCell id="109" value="n" style="text;html=1;align=center;verticalAlign=middle;resizable=0;points=[];autosize=1;strokeColor=none;fillColor=none;fontSize=16;" vertex="1" parent="1">
                    <mxGeometry x="-245" y="430" width="30" height="30" as="geometry"/>
                </mxCell>
                <mxCell id="110" value="m" style="text;html=1;align=center;verticalAlign=middle;resizable=0;points=[];autosize=1;strokeColor=none;fillColor=none;fontSize=16;" vertex="1" parent="1">
                    <mxGeometry x="-330" y="380" width="40" height="30" as="geometry"/>
                </mxCell>
                <mxCell id="111" value="1" style="text;html=1;align=center;verticalAlign=middle;resizable=0;points=[];autosize=1;strokeColor=none;fillColor=none;fontSize=16;" vertex="1" parent="1">
                    <mxGeometry x="-350" y="730" width="30" height="30" as="geometry"/>
                </mxCell>
                <mxCell id="117" style="edgeStyle=none;html=1;fontSize=16;endArrow=none;endFill=0;" edge="1" parent="1" source="115" target="79">
                    <mxGeometry relative="1" as="geometry"/>
                </mxCell>
                <mxCell id="115" value="&lt;u&gt;院系号&lt;/u&gt;" style="ellipse;whiteSpace=wrap;html=1;align=center;rounded=0;fontSize=16;" vertex="1" parent="1">
                    <mxGeometry x="229.5" y="220" width="100" height="40" as="geometry"/>
                </mxCell>
                <mxCell id="118" style="edgeStyle=none;html=1;fontSize=16;endArrow=none;endFill=0;" edge="1" parent="1" source="116" target="79">
                    <mxGeometry relative="1" as="geometry"/>
                </mxCell>
                <mxCell id="116" value="院系名" style="ellipse;whiteSpace=wrap;html=1;align=center;rounded=0;fontSize=16;" vertex="1" parent="1">
                    <mxGeometry x="350" y="250" width="100" height="40" as="geometry"/>
                </mxCell>
                <mxCell id="120" style="edgeStyle=none;html=1;fontSize=16;endArrow=none;endFill=0;" edge="1" parent="1" source="119" target="48">
                    <mxGeometry relative="1" as="geometry"/>
                </mxCell>
                <mxCell id="119" value="人数" style="ellipse;whiteSpace=wrap;html=1;align=center;rounded=0;fontSize=16;" vertex="1" parent="1">
                    <mxGeometry x="-610" y="891" width="100" height="40" as="geometry"/>
                </mxCell>
            </root>
        </mxGraphModel>
    </diagram>
</mxfile>